<svg xmlns="http://www.w3.org/2000/svg" viewBox="0 0 480.004 480.004"><path d="M423.618 85.472l-16-48a8 8 0 0 0-11.2-4.632l-48 24a8.004 8.004 0 0 0 7.152 14.32l26.144-13.072C312.914 183.912 187.442 264 56.002 264v16c139.024 0 271.504-85.472 342.472-219.28l9.944 29.808a8.01 8.01 0 0 0 15.2-5.056z"/><path d="M472.002 0h-464a8 8 0 0 0-8 8v360a8 8 0 0 0 8 8H149.17l-28.8 93.648a8.001 8.001 0 1 0 15.296 4.704L151.146 424h177.712l15.496 50.352a8.001 8.001 0 1 0 15.296-4.704L330.834 376h141.168a8 8 0 0 0 8-8V8a8 8 0 0 0-8-8zM156.066 408l9.848-32H314.09l9.848 32H156.066zm307.936-48h-448V16h448v344z"/><path d="M96.002 296h-32a8 8 0 0 0-8 8v32a8 8 0 0 0 8 8h32a8 8 0 0 0 8-8v-32a8 8 0 0 0-8-8zm-8 32h-16v-16h16v16zM176.002 280h-32a8 8 0 0 0-8 8v48a8 8 0 0 0 8 8h32a8 8 0 0 0 8-8v-48a8 8 0 0 0-8-8zm-8 48h-16v-32h16v32zM256.002 248h-32a8 8 0 0 0-8 8v80a8 8 0 0 0 8 8h32a8 8 0 0 0 8-8v-80a8 8 0 0 0-8-8zm-8 80h-16v-64h16v64zM336.002 200h-32a8 8 0 0 0-8 8v128a8 8 0 0 0 8 8h32a8 8 0 0 0 8-8V208a8 8 0 0 0-8-8zm-8 128h-16V216h16v112zM416.002 112h-32a8 8 0 0 0-8 8v216a8 8 0 0 0 8 8h32a8 8 0 0 0 8-8V120a8 8 0 0 0-8-8zm-8 216h-16V128h16v200z"/></svg>