<svg xmlns="http://www.w3.org/2000/svg" viewBox="0 0 496 496"><path d="M496 248C496 111.256 384.744 0 248 0c-42.872 0-84.64 11.104-121.672 32H96V0H48v101.496C16.64 144.216 0 194.776 0 248c0 136.752 111.256 248 248 248 30.472 0 60.216-5.48 88.416-16.248C352.512 489.984 371.552 496 392 496c24.944 0 49.072-8.968 67.936-25.248L449.48 458.64A87.978 87.978 0 0 1 392 480c-48.52 0-88-39.48-88-88s39.48-88 88-88 88 39.48 88 88c0 20.28-6.704 39.344-19.4 55.128l12.472 10.032C487.856 438.768 496 415.632 496 392c0-20.464-6.024-39.504-16.264-55.608C490.496 308.184 496 278.472 496 248zM128 80h16v112h-16V80zM96 48h16v144H96V48zM64 16h16v176H64V16zm176 463.8C118.432 475.648 20.352 377.568 16.2 256H240v223.8zm0-239.8H16.32c1.304-38.944 12.12-76.16 31.68-109.336V208h176v-80h-32V96h-32V64h-32V49.536c33.848-20.512 72.312-31.896 112-33.256V240zm-80-48v-80h16v80h-16zm32 0v-48h16v48h-16zm287.8 48h-68.488l58.832-58.832c5.648 18.728 8.96 38.448 9.656 58.832zm-40.312-122.8l-89.352 89.352 11.312 11.312 86.8-86.8a231.703 231.703 0 0 1 16.088 33.288L388.688 240h-49.376l10.344-10.344-11.312-11.312L316.688 240h-49.376L417.496 89.816c7.984 8.56 15.352 17.696 21.992 27.384zM256 16.2c20.384.696 40.104 4.008 58.832 9.656L256 84.688V16.2zm0 163.112l97.224-97.224-11.312-11.312L256 156.688v-49.376l75.648-75.648a230.026 230.026 0 0 1 33.288 16.088L352.048 60.64l11.312 11.312 15.44-15.44c9.688 6.64 18.824 14 27.384 21.992L256 228.688v-49.376zM392 288c-57.344 0-104 46.656-104 104 0 30.088 12.92 57.144 33.408 76.152-21.08 7.032-43.008 10.912-65.408 11.664V256h223.816c-.752 22.392-4.664 44.304-11.688 65.384C449.12 300.904 422.072 288 392 288z"/><path d="M98.378 386.342l96-96 11.314 11.313-96 96zM184 352c-13.232 0-24 10.768-24 24s10.768 24 24 24 24-10.768 24-24-10.768-24-24-24zm0 32c-4.408 0-8-3.584-8-8s3.592-8 8-8 8 3.584 8 8-3.592 8-8 8zM120 288c-13.232 0-24 10.768-24 24s10.768 24 24 24 24-10.768 24-24-10.768-24-24-24zm0 32c-4.408 0-8-3.584-8-8s3.592-8 8-8 8 3.584 8 8-3.592 8-8 8zM392 384c-8.824 0-16-7.176-16-16s7.176-16 16-16 16 7.176 16 16h16c0-14.872-10.24-27.288-24-30.864V320h-16v17.136c-13.76 3.576-24 15.992-24 30.864 0 17.648 14.352 32 32 32 8.824 0 16 7.176 16 16s-7.176 16-16 16-16-7.176-16-16h-16c0 14.872 10.24 27.288 24 30.864V464h16v-17.136c13.76-3.576 24-15.992 24-30.864 0-17.648-14.352-32-32-32zM448 384h16v16h-16zM320 384h16v16h-16z"/></svg>