<svg xmlns="http://www.w3.org/2000/svg" viewBox="0 0 480.046 480.046"><path d="M412.078 216.172l-20.25-11.914a149.692 149.692 0 0 0-1.977-7.258l14.406-21.805a8.001 8.001 0 0 0 .594-7.762 175.559 175.559 0 0 0-18.313-30.84 8.153 8.153 0 0 0-6.82-3.234l-26.844 1.32a156.194 156.194 0 0 0-5.172-5.063l1.344-26.008a7.997 7.997 0 0 0-3.383-6.953 182.25 182.25 0 0 0-31.523-17.848 7.983 7.983 0 0 0-7.492.551l-22.5 14.176a158.378 158.378 0 0 0-7.43-1.937L264.461 68.3a8.001 8.001 0 0 0-7.078-4.277h-34.719a8 8 0 0 0-7.078 4.277l-12.25 23.297c-2.5.586-4.979 1.232-7.437 1.937l-22.492-14.176a7.984 7.984 0 0 0-7.484-.555 181.884 181.884 0 0 0-31.539 17.855 7.998 7.998 0 0 0-3.375 6.945l1.344 26.012a149.491 149.491 0 0 0-5.172 5.055l-26.852-1.32a8.346 8.346 0 0 0-6.828 3.238 177.058 177.058 0 0 0-18.297 30.84 8.011 8.011 0 0 0 .586 7.758L90.195 197a149.38 149.38 0 0 0-1.977 7.258l-20.25 11.91a7.995 7.995 0 0 0-3.946 6.894v33.918a7.999 7.999 0 0 0 3.945 6.895l20.25 11.91a151.108 151.108 0 0 0 1.977 7.262l-14.406 21.801a8.001 8.001 0 0 0-.594 7.762 175.69 175.69 0 0 0 18.313 30.844 8.21 8.21 0 0 0 6.82 3.234l26.844-1.32a155.202 155.202 0 0 0 5.172 5.063L131 376.434a7.997 7.997 0 0 0 3.383 6.953 182.401 182.401 0 0 0 31.523 17.852 8.008 8.008 0 0 0 7.492-.551l22.5-14.176c2.437.699 4.922 1.348 7.43 1.937l12.258 23.297a8.003 8.003 0 0 0 7.078 4.278h34.719a8 8 0 0 0 7.078-4.277l12.25-23.297c2.5-.586 4.979-1.232 7.438-1.937l22.492 14.176a8.007 8.007 0 0 0 7.484.555 181.884 181.884 0 0 0 31.539-17.855 7.998 7.998 0 0 0 3.375-6.945l-1.344-26.012a147.794 147.794 0 0 0 5.172-5.059l26.852 1.32a8.083 8.083 0 0 0 6.82-3.234 176.549 176.549 0 0 0 18.305-30.844 8.011 8.011 0 0 0-.586-7.758l-14.406-21.809a149.38 149.38 0 0 0 1.977-7.258l20.25-11.91a7.992 7.992 0 0 0 3.945-6.894v-33.918a7.997 7.997 0 0 0-3.946-6.896zm-12.055 36.235l-19.266 11.332a7.995 7.995 0 0 0-3.758 5.172 135.01 135.01 0 0 1-3.516 12.887 8.004 8.004 0 0 0 .922 6.895l14 21.199a160.029 160.029 0 0 1-12.25 20.605l-26.164-1.285a8.355 8.355 0 0 0-6.25 2.547 141.251 141.251 0 0 1-9.539 9.324 7.99 7.99 0 0 0-2.68 6.391l1.305 25.32a165.881 165.881 0 0 1-21.312 12.055l-21.914-13.813a7.964 7.964 0 0 0-6.656-.863 143.12 143.12 0 0 1-13.227 3.445 7.98 7.98 0 0 0-5.437 4.105l-11.727 22.301h-25.063l-11.727-22.301a8.003 8.003 0 0 0-5.43-4.105 143.742 143.742 0 0 1-13.234-3.445 7.957 7.957 0 0 0-6.656.863l-21.922 13.812a166.44 166.44 0 0 1-21.313-12.063l1.313-25.312a8.006 8.006 0 0 0-2.688-6.402 139.345 139.345 0 0 1-9.539-9.316 8.187 8.187 0 0 0-6.25-2.547l-26.156 1.285a159.209 159.209 0 0 1-12.258-20.602l14-21.195a7.988 7.988 0 0 0 .93-6.898 135.305 135.305 0 0 1-3.516-12.891 7.992 7.992 0 0 0-3.758-5.172l-19.266-11.332v-24.762l19.266-11.332a7.995 7.995 0 0 0 3.758-5.172 135.01 135.01 0 0 1 3.516-12.887 8.004 8.004 0 0 0-.922-6.895l-14-21.203a160.51 160.51 0 0 1 12.25-20.605l26.164 1.289a7.975 7.975 0 0 0 6.25-2.547 141.251 141.251 0 0 1 9.539-9.324 7.99 7.99 0 0 0 2.68-6.391l-1.305-25.32a165.881 165.881 0 0 1 21.312-12.055l21.914 13.813a7.998 7.998 0 0 0 6.656.863 143.12 143.12 0 0 1 13.227-3.445 7.98 7.98 0 0 0 5.437-4.105l11.727-22.301h25.063l11.727 22.301a8.003 8.003 0 0 0 5.43 4.105c4.516.953 8.969 2.109 13.234 3.445a8.035 8.035 0 0 0 6.656-.863L311.523 95.2a166.414 166.414 0 0 1 21.313 12.059l-1.313 25.316a8.006 8.006 0 0 0 2.688 6.402 139.345 139.345 0 0 1 9.539 9.316 8.127 8.127 0 0 0 6.25 2.547l26.156-1.285a159.209 159.209 0 0 1 12.258 20.602l-14 21.195a7.988 7.988 0 0 0-.93 6.898A135.225 135.225 0 0 1 377 211.137a7.992 7.992 0 0 0 3.758 5.172l19.266 11.332v24.766z"/><path d="M240.023 120.024c-66.274 0-120 53.726-120 120s53.726 120 120 120 120-53.726 120-120c-.073-66.244-53.756-119.927-120-120zm0 224c-57.438 0-104-46.562-104-104s46.562-104 104-104 104 46.562 104 104c-.065 57.41-46.589 103.935-104 104zM408.023 32.024v48h-48v16h56a7.998 7.998 0 0 0 8-7.996V32.024h-16zM64.023 384.024a7.998 7.998 0 0 0-8 7.996v56.004h16v-48h48v-16h-56z"/><path d="M41.402 105.327A240.033 240.033 0 0 0 .023 240.024a238.756 238.756 0 0 0 41.383 134.77l13.234-9c-69.445-102.4-42.731-241.708 59.669-311.153 75.92-51.488 175.558-51.489 251.48-.003l9-13.234C265.074-33.007 115.812-4.387 41.402 105.327zM440.219 107.606l-13.344 8.836c68.236 103.211 39.884 242.196-63.326 310.432-75.72 50.061-174.164 49.483-249.291-1.463l-9 13.234c109.716 74.409 258.979 45.787 333.388-63.929 54.592-80.495 55.213-185.978 1.573-267.11z"/></svg>