<svg xmlns="http://www.w3.org/2000/svg" viewBox="0 0 471.477 471.477"><path d="M190.024 105.178c-17.673 0-32 14.327-32 32s14.327 32 32 32c17.673 0 32-14.327 32-32s-14.327-32-32-32zm0 48c-8.837 0-16-7.163-16-16 .044-8.805 7.195-15.92 16-15.92v-.08c8.837 0 16 7.163 16 16s-7.163 16-16 16zM281.544 105.178c-17.673 0-32 14.327-32 32s14.327 32 32 32c17.673 0 32-14.327 32-32s-14.327-32-32-32zm0 48c-8.837 0-16-7.163-16-16 .044-8.805 7.195-15.92 16-15.92v-.08c8.837 0 16 7.163 16 16s-7.163 16-16 16z"/><path d="M379.097 142.007c-3.452-18.993-18.742-33.603-37.872-36.189-5.28-19.52-20.48-36.16-51.04-36.16h-46.4v-17.6c14.034-4.418 21.829-19.377 17.41-33.41-4.418-14.034-19.377-21.829-33.41-17.41-14.034 4.418-21.829 19.377-17.41 33.41a26.64 26.64 0 0 0 17.41 17.41v17.2h-46.32c-21.6 0-44.32 9.92-51.2 36.16-24.381 3.347-41.433 25.825-38.086 50.206 2.624 19.117 17.255 34.372 36.246 37.794l-.08.4c2.4 35.12 28.48 48 53.04 48h108.8c36.56 0 51.2-24 53.04-48 24.212-4.402 40.273-27.598 35.872-51.811zm-250.993 35.811c-15.11-4.368-23.819-20.158-19.452-35.268a28.48 28.48 0 0 1 19.452-19.452v54.72zm97.04-150.72c0-5.876 4.764-10.64 10.64-10.64s10.64 4.764 10.64 10.64-4.764 10.64-10.64 10.64-10.64-4.764-10.64-10.64zm102.32 160.96c0 13.92-4.88 37.28-37.28 37.28h-108.72c-13.92 0-37.28-4.88-37.28-37.28l-.08-64.96c0-32.48 23.36-37.28 37.28-37.28h108.8c32.48 0 37.28 23.36 37.28 37.28v64.96zm15.68-10.8v-54.72a28.56 28.56 0 0 1 20.64 27.36 28.56 28.56 0 0 1-20.64 27.36z"/><path d="M281.544 190.938h-91.52a8 8 0 0 0 0 16h91.52a8 8 0 0 0 0-16zM413.784 256.778c-.153-17.142-14.173-30.915-31.315-30.762-14.344.128-26.732 10.067-29.965 24.042l-21.36 4.16h-190.72l-21.36-4.16c-3.66-16.748-20.203-27.358-36.951-23.698s-27.358 20.203-23.698 36.951a31.041 31.041 0 0 0 22.409 23.388v59.76c-13.533 3.61-22.972 15.834-23.04 29.84v14.16a8 8 0 0 0 16 0v-14.24c0-8.306 6.734-15.04 15.04-15.04s15.04 6.734 15.04 15.04v14.24a8 8 0 0 0 16 0v-14.24c-.068-14.006-9.507-26.23-23.04-29.84v-59.76a30.962 30.962 0 0 0 21.44-20.48l13.36 2.64v98.72a103.445 103.445 0 0 0 8.96 42v.72c23.619 52.357 85.21 75.653 137.566 52.034a104.001 104.001 0 0 0 52.034-52.034l.4-.88a103.358 103.358 0 0 0 9.2-41.84v-98.72l13.36-2.64a30.962 30.962 0 0 0 21.44 20.48v59.76c-13.533 3.61-22.972 15.834-23.04 29.84v14.24a8 8 0 0 0 16 0v-14.24c.008-8.306 6.748-15.034 15.054-15.026 8.295.008 15.018 6.731 15.026 15.026v14.24a8 8 0 0 0 16 0v-14.24c-.068-14.006-9.507-26.23-23.04-29.84v-59.76c13.596-3.55 23.112-15.79 23.2-29.841zm-324.96 15.04c-8.306 0-15.04-6.734-15.04-15.04s6.734-15.04 15.04-15.04 15.04 6.734 15.04 15.04-6.734 15.04-15.04 15.04zm146.96 183.76a88 88 0 0 1-74.32-40.88h148.64a88.002 88.002 0 0 1-74.32 40.88zm88-88a87.985 87.985 0 0 1-5.84 31.2h-164.48a87.985 87.985 0 0 1-5.84-31.2v-97.36h176.16v97.36zm59.043-95.762l-.083.001-.16-.24c-8.306 0-15.04-6.734-15.04-15.04s6.734-15.04 15.04-15.04 15.04 6.734 15.04 15.04c.133 8.306-6.492 15.146-14.797 15.279z"/><path d="M264.085 326.679a8.002 8.002 0 0 0-5.341-2.061h-24l29.44-30.24a8 8 0 0 0-11.44-11.12l-42.64 43.84a8 8 0 0 0 5.76 13.6h24.64l-30.32 33.76a8 8 0 0 0 .56 11.28 8 8 0 0 0 11.28-.56l42.64-47.2a8 8 0 0 0-.579-11.299z"/></svg>